# xmcd
#
# Track frame offsets: 
#        150
#        21852
#        34444
#        47143
#        58297
#        70981
#        91502
#        110016
#        118992
#        131941
#        148921
#        159254
#        172305
#        186753
#        198607
#        217717
#        228209
#        242836
#        260910
#        279573
#        296675
#        310455
#
# Disc length: 4367 seconds
#
# Revision: 0
# Processed by: cddbd v1.5.2PL0 Copyright (c) Steve Scherf et al.
# Submitted via: ExactAudioCopyFreeDBPlugin 1.0
#
DISCID=64110d16
DTITLE=Jonny Hill - Ruf Teddybär eins-vier [CD 1)
DYEAR=2006
DGENRE=Country
TTITLE0=Ruf Teddybär eins-vier
TTITLE1=500 Meilen von zu Haus
TTITLE2=Green, Green Grass Of Home
TTITLE3=Ich fahr meine Tour
TTITLE4=Kann Liebe alles verzeih'n
TTITLE5=Der Feigling
TTITLE6=Der Haus-Song
TTITLE7=Ein Ring aus Feuer
TTITLE8=Es sind nur Erinnerungen
TTITLE9=Rosen für Mama
TTITLE10=Heute Nacht da brauch ich dich
TTITLE11=Ich hab dich heut Nacht so sehr vermisst
TTITLE12=Ich muss dich vergessen
TTITLE13=Ja, die Tür steht immer offen
TTITLE14=Kinder, alte Hunde und junger, herber Wein
TTITLE15=König der Landstraße
TTITLE16=Nur noch einmal nach Hause
TTITLE17=Bis der letzte Fluß versiegt
TTITLE18=Sylvias Mutter
TTITLE19=Wo der Mond versinkt
TTITLE20=Ich lösche das Licht aus
TTITLE21=Geisterreiter
EXTD=
EXTT0=
EXTT1=
EXTT2=
EXTT3=
EXTT4=
EXTT5=
EXTT6=
EXTT7=
EXTT8=
EXTT9=
EXTT10=
EXTT11=
EXTT12=
EXTT13=
EXTT14=
EXTT15=
EXTT16=
EXTT17=
EXTT18=
EXTT19=
EXTT20=
EXTT21=
PLAYORDER=
